<svg version="1.1" id="Layer_1" xmlns="http://www.w3.org/2000/svg" xmlns:xlink="http://www.w3.org/1999/xlink" x="0px" y="0px"
	 width="100%" viewBox="190 350 290 290" xml:space="preserve">
<path fill="#955D5D" opacity="1.000000" stroke="none" 
	d="
M209.647705,404.133820
	C205.118103,412.719910 203.238541,421.986847 203.222763,431.570740 
	C203.126770,489.882935 203.149506,548.195312 203.133484,606.507629 
	C203.133255,607.340637 202.821335,608.400818 203.215286,608.960388 
	C204.095932,610.211121 205.319565,612.161316 206.423325,612.174622 
	C227.071289,612.422668 247.722443,612.386963 268.372162,612.524963 
	C271.943298,612.548828 272.857422,610.994995 272.821259,607.655029 
	C272.689484,595.494446 272.795441,583.330994 272.843323,571.168823 
	C272.847992,569.984131 273.069946,568.800354 273.268982,566.853394 
	C280.268188,575.596252 288.077637,581.793030 297.735565,585.774719 
	C310.387634,590.990845 322.682648,588.501648 334.700806,584.207764 
	C340.063873,582.291626 343.343597,583.685913 347.681580,586.701050 
	C358.306488,594.085938 369.330597,600.950745 380.552429,607.401367 
	C386.928650,611.066650 394.155823,612.268433 401.722595,612.179810 
	C424.211365,611.916626 446.708496,611.916870 469.195190,612.269409 
	C474.271271,612.348999 475.748260,611.236755 475.733673,606.063782 
	C475.571655,548.584717 475.671326,491.104980 475.599640,433.625549 
	C475.594299,429.324646 475.209290,424.943329 474.335999,420.737427 
	C468.222778,391.295532 444.169891,370.556183 414.111877,369.491302 
	C396.974884,368.884155 381.110748,373.579071 369.697418,387.106079 
	C361.362152,396.985016 354.472870,408.085144 346.958405,418.654694 
	C345.192688,421.138336 343.505280,423.677643 341.579956,426.485809 
	C335.751221,418.302979 330.648102,410.488037 324.871521,403.207458 
	C318.788971,395.541321 313.044220,387.119751 305.445496,381.229614 
	C274.807434,357.480591 228.764481,368.551239 209.647705,404.133820 
M534.643127,460.512848 
	C534.238342,473.331268 533.990295,486.157257 533.372437,498.965393 
	C532.973816,507.229370 531.658630,508.433624 523.803711,510.678650 
	C522.647644,511.009033 521.738037,512.201721 520.714417,512.995483 
	C521.835083,513.598511 522.945557,514.702087 524.077942,514.724976 
	C532.738770,514.900085 541.404602,514.928162 550.066650,514.821777 
	C551.274597,514.806885 552.470337,513.808594 553.671753,513.265564 
	C552.546631,512.361267 551.554993,511.002960 550.274658,510.626648 
	C542.228271,508.261536 540.887756,506.751556 540.910339,498.348663 
	C540.964172,478.357025 541.113220,458.365601 541.261108,438.374390 
	C541.269653,437.218414 541.610657,436.064941 541.796997,434.910309 
	C545.682373,442.179047 548.729797,449.477203 551.698547,456.807190 
	C559.004211,474.844910 566.240662,492.910797 573.627869,510.914886 
	C574.150391,512.188354 575.670715,513.867371 576.737854,513.875244 
	C577.824585,513.883179 579.090088,512.180664 579.969238,510.998108 
	C580.743164,509.957001 581.129272,508.614685 581.622437,507.379761 
	C589.643738,487.290436 597.658142,467.198303 605.665955,447.103607 
	C607.535095,442.413086 609.374512,437.710693 611.562805,432.164154 
	C612.057373,433.621368 612.312012,434.030731 612.320312,434.444977 
	C612.759094,456.430420 613.302368,478.414948 613.525024,500.402771 
	C613.596863,507.487061 611.519348,509.288300 604.110718,511.031250 
	C602.986023,511.295807 602.073608,512.462280 601.062988,513.211609 
	C602.143677,513.686462 603.220093,514.562500 604.305786,514.574158 
	C615.133728,514.690552 625.963684,514.713989 636.791565,514.609985 
	C638.021179,514.598267 639.241638,513.643677 640.466370,513.126343 
	C639.335144,512.223816 638.294189,510.706360 637.057129,510.524811 
	C631.604004,509.724335 629.293274,506.523865 629.185974,501.317810 
	C628.708984,478.175201 628.176636,455.033447 627.807922,431.889069 
	C627.694031,424.742645 629.171021,423.281830 636.016907,421.690613 
	C637.215881,421.411896 638.196533,420.193634 639.278015,419.409271 
	C639.015869,418.938599 638.753662,418.467896 638.491516,417.997223 
	C631.348816,417.997223 624.179321,418.375610 617.072510,417.871033 
	C611.889832,417.503113 609.538330,419.280090 607.762146,424.146545 
	C602.115112,439.618683 595.930481,454.895050 589.916504,470.232513 
	C587.324158,476.843750 584.640747,483.419250 581.702637,490.749756 
	C580.576233,488.123932 579.770142,486.336090 579.035889,484.519196 
	C570.682373,463.848602 562.257568,443.206024 554.077881,422.466827 
	C552.758362,419.121338 551.074646,417.909058 547.516541,418.051361 
	C540.863159,418.317413 534.188660,418.013885 527.527893,418.166565 
	C525.978516,418.202087 524.449280,419.117126 522.910767,419.627441 
	C524.258972,420.454773 525.509155,421.680359 526.972351,422.040527 
	C533.309570,423.600464 534.978638,425.496613 534.947449,432.024933 
	C534.903687,441.187958 534.789795,450.350647 534.643127,460.512848 
M1222.640381,448.995209 
	C1216.553223,449.352570 1210.195923,448.722565 1204.441406,450.296265 
	C1195.580200,452.719574 1190.138672,459.193024 1189.120361,468.655487 
	C1188.127075,477.885651 1191.401367,484.957672 1200.059692,489.100952 
	C1200.733643,489.423462 1201.296997,489.976959 1202.002930,490.489258 
	C1186.358154,500.140411 1185.465942,506.250702 1198.848755,513.979492 
	C1195.536011,515.648926 1192.390259,517.051941 1189.426270,518.768799 
	C1184.365845,521.699829 1182.493896,526.179993 1183.569092,531.889465 
	C1184.781250,538.326172 1188.895264,542.133545 1194.855713,544.005127 
	C1204.695923,547.094971 1214.771973,548.045654 1224.923096,545.924255 
	C1232.852051,544.267151 1240.227905,541.281982 1245.769409,534.964966 
	C1255.866577,523.454346 1250.969116,508.142059 1236.112549,505.044464 
	C1232.880127,504.370514 1229.517578,504.223022 1226.203857,504.057709 
	C1219.558716,503.726166 1212.886353,503.777710 1206.264771,503.209320 
	C1203.129761,502.940247 1200.170410,501.048218 1201.097290,497.312134 
	C1201.875610,494.174561 1203.873535,491.960846 1208.073730,492.660645 
	C1211.965698,493.309082 1216.091431,493.367401 1220.011597,492.872345 
	C1230.076050,491.601379 1238.208862,487.186768 1241.449097,476.839783 
	C1243.645874,469.825165 1242.312012,463.098267 1237.399902,456.463135 
	C1242.758057,456.463135 1247.303467,456.463135 1252.003906,456.463135 
	C1252.003906,453.906281 1252.003906,451.844055 1252.003906,450.806854 
	C1242.219971,450.228210 1232.860229,449.674622 1222.640381,448.995209 
M912.438232,451.103699 
	C909.392273,451.936676 906.306702,452.652863 903.321167,453.664093 
	C902.233704,454.032440 901.384399,455.103699 900.426453,455.854309 
	C901.397766,456.532227 902.283997,457.582092 903.354431,457.826904 
	C909.672180,459.271698 910.613831,460.301270 910.642578,466.990936 
	C910.689880,477.985504 910.656067,488.980438 910.675720,499.975159 
	C910.689636,507.781860 910.314148,508.284668 902.878967,510.995880 
	C902.137207,511.266357 901.627869,512.174133 901.010681,512.786072 
	C901.881348,513.284302 902.744873,514.199463 903.623840,514.214417 
	C910.285522,514.328064 916.950256,514.264038 923.614014,514.258057 
	C927.022095,514.255005 930.430237,514.257507 933.838318,514.257507 
	C933.991882,513.761902 934.145447,513.266296 934.298950,512.770752 
	C933.298645,512.073730 932.366699,510.917969 931.286499,510.756989 
	C925.879883,509.951233 924.247437,506.638367 924.310120,501.608826 
	C924.440918,491.115265 924.278076,480.618164 924.398071,470.124329 
	C924.419922,468.213959 924.748291,466.018738 925.733704,464.459808 
	C929.187012,458.997101 938.554993,456.324402 945.557861,458.464630 
	C951.147034,460.172821 953.659912,464.271484 953.757141,472.344574 
	C953.867371,481.506012 953.793762,490.669556 953.823730,499.832123 
	C953.849182,507.611023 953.529480,508.036957 945.980957,510.879578 
	C945.226379,511.163757 944.698975,512.051270 944.066162,512.658813 
	C944.604614,513.159668 945.139404,514.092773 945.682068,514.097412 
	C955.931152,514.184265 966.181091,514.161438 977.816528,514.161438 
	C976.269226,512.389709 975.708984,511.119751 974.990601,511.022949 
	C967.916687,510.069427 966.991028,505.249725 967.091248,499.373199 
	C967.273132,488.713898 967.408020,478.045197 967.163757,467.389557 
	C966.877625,454.907928 958.790222,447.469849 946.388184,448.766113 
	C941.604004,449.266174 936.880798,451.434113 932.411865,453.463470 
	C929.662170,454.712128 927.446045,457.135956 924.620483,459.317688 
	C924.245728,455.588867 923.909912,452.247070 923.527283,448.440002 
	C919.634827,449.388245 916.435547,450.167633 912.438232,451.103699 
M1139.555298,515.763367 
	C1149.153198,515.784363 1158.128052,514.025024 1165.059937,506.637146 
	C1175.591675,495.412689 1177.397949,476.387085 1169.244751,462.968597 
	C1161.884644,450.855469 1145.081299,445.162445 1129.956543,449.657806 
	C1114.361938,454.292786 1105.425293,468.812164 1107.432739,486.252350 
	C1109.501953,504.230164 1120.751831,514.872559 1139.555298,515.763367 
M1053.887573,484.306366 
	C1053.904419,483.141113 1053.938843,481.975769 1053.935303,480.810577 
	C1053.886230,464.726898 1043.778564,451.916168 1028.942017,449.126221 
	C1010.310852,445.622681 995.454041,452.970032 989.295471,468.733307 
	C982.888184,485.132843 988.501343,503.534027 1002.286194,511.319916 
	C1025.209106,524.267090 1050.013672,511.715515 1053.887573,484.306366 
M685.826050,448.841919 
	C681.669250,448.922424 677.449829,448.578796 673.370178,449.181458 
	C667.036438,450.117126 661.010498,452.239563 656.725647,457.399261 
	C654.318054,460.298370 653.187073,464.199493 655.900330,466.957153 
	C657.581238,468.665558 661.981201,469.773651 663.809509,468.746490 
	C666.193176,467.407288 667.892456,463.868744 668.708496,460.947540 
	C669.971863,456.425232 671.945251,453.402283 676.927612,452.991089 
	C682.772766,452.508636 686.974548,454.415924 688.355103,459.628296 
	C689.724670,464.799683 689.894043,470.288910 690.580322,475.565613 
	C684.350952,477.191528 679.107666,478.267181 674.069519,479.954987 
	C668.733643,481.742615 663.318237,483.621094 658.434937,486.349976 
	C652.060303,489.912262 649.745789,496.688293 651.332703,504.056641 
	C652.674927,510.288666 657.626465,515.166626 664.912842,515.257446 
	C670.352234,515.325256 675.979675,513.763733 681.212952,512.004272 
	C684.499390,510.899384 687.211548,508.086670 690.200012,506.027283 
	C692.972961,515.202454 695.842712,516.728271 705.630920,514.214294 
	C707.883179,513.635803 710.183350,513.099548 712.286987,512.155273 
	C713.188293,511.750702 713.643494,510.352203 714.301392,509.405304 
	C713.400940,508.925629 712.535767,508.119537 711.594482,508.018005 
	C704.297485,507.230804 703.543823,506.557037 703.484863,499.081696 
	C703.403381,488.751221 703.652405,478.415955 703.440857,468.089294 
	C703.197937,456.225464 698.298584,450.814758 685.826050,448.841919 
M1353.621582,458.036865 
	C1351.349121,453.364807 1347.581909,450.449188 1342.571167,449.503601 
	C1332.318970,447.568848 1322.298340,448.058441 1313.199585,453.851257 
	C1311.308960,455.054993 1309.180176,456.791992 1308.494751,458.750153 
	C1307.650513,461.161621 1307.248047,464.660553 1308.443604,466.568268 
	C1309.463013,468.194672 1312.985962,468.723083 1315.452148,468.867340 
	C1319.731445,469.117706 1320.159302,465.629639 1320.763794,462.419128 
	C1322.044312,455.618988 1324.351562,453.253906 1329.715210,452.946686 
	C1336.467407,452.559967 1340.853271,456.302307 1341.964233,463.398193 
	C1343.723877,474.639282 1343.181885,475.598206 1334.376343,477.937012 
	C1329.394897,479.260132 1324.397461,480.586945 1319.540527,482.291840 
	C1316.431885,483.383026 1313.379395,484.883698 1310.629639,486.697723 
	C1304.302368,490.871826 1302.133057,497.425049 1304.107056,505.167877 
	C1305.565308,510.887482 1310.809937,514.863953 1317.990356,515.492798 
	C1325.427734,516.144104 1332.181396,514.299011 1338.069702,509.587494 
	C1339.444458,508.487579 1340.843140,507.417694 1342.335205,506.252502 
	C1345.431519,515.193481 1348.405151,516.756104 1357.492188,514.381348 
	C1360.061157,513.709961 1362.640747,512.950623 1365.050781,511.865753 
	C1365.948975,511.461426 1366.376587,510.011688 1367.018799,509.038635 
	C1366.027710,508.507721 1364.898682,507.358582 1364.067627,507.544220 
	C1357.719116,508.962433 1355.316895,505.740845 1355.363525,499.510040 
	C1355.439697,489.350830 1355.547607,479.188721 1355.373657,469.032440 
	C1355.314697,465.589569 1354.443359,462.160583 1353.621582,458.036865 
M783.513550,453.980988 
	C775.009033,460.289398 771.414124,469.122528 770.315613,479.319305 
	C768.721436,494.117828 775.564453,507.781921 787.397095,513.168579 
	C800.203003,518.998291 816.613098,515.980225 825.580261,505.890503 
	C826.995911,504.297577 828.756042,500.768524 828.108887,499.980194 
	C825.567505,496.884491 823.897644,500.607117 822.151306,501.804108 
	C809.372070,510.563782 792.255005,506.650940 787.613831,493.481659 
	C786.046692,489.034790 785.728943,484.147552 784.648254,478.449615 
	C800.025757,478.449615 814.432007,478.449615 828.709839,478.449615 
	C830.613342,463.641876 824.022827,452.555115 811.460205,449.583344 
	C801.984985,447.341827 792.565002,447.737640 783.513550,453.980988 
M1073.919800,484.499390 
	C1073.910034,490.162872 1073.818481,495.827789 1073.915039,501.489441 
	C1074.001099,506.529694 1071.969849,509.716309 1066.833618,510.794250 
	C1065.564453,511.060638 1064.452881,512.078735 1063.268921,512.751282 
	C1063.494141,513.285156 1063.719482,513.819031 1063.944702,514.352905 
	C1073.731689,514.352905 1083.519531,514.410950 1093.304932,514.288086 
	C1094.714844,514.270325 1096.113892,513.382385 1097.517944,512.897156 
	C1096.339966,512.029480 1095.257812,510.621429 1093.966553,510.392456 
	C1089.575806,509.613800 1087.678711,507.107849 1087.630371,502.819214 
	C1087.602173,500.324402 1087.328003,497.831543 1087.322632,495.337433 
	C1087.266968,469.352539 1087.243164,443.367584 1087.211060,417.382629 
	C1087.209106,415.806671 1087.210815,414.230743 1087.210815,412.258331 
	C1079.194092,414.042877 1071.915405,415.599823 1064.687744,417.365692 
	C1063.929443,417.550903 1063.472412,418.969391 1062.875610,419.815735 
	C1063.755981,420.363922 1064.571655,421.201263 1065.526733,421.414795 
	C1073.614502,423.222504 1073.865967,423.467468 1073.876343,431.529205 
	C1073.898682,448.852692 1073.907104,466.176208 1073.919800,484.499390 
M842.627930,514.215759 
	C852.794128,514.230835 862.960754,514.289917 873.125854,514.192444 
	C874.139832,514.182800 875.144653,513.220520 876.153748,512.700317 
	C875.233704,511.998352 874.379456,511.172699 873.371094,510.636841 
	C872.669067,510.263672 871.760986,510.246033 870.935791,510.142090 
	C866.153748,509.539673 863.988403,506.843628 864.032654,502.028992 
	C864.115295,493.030273 863.807800,484.023041 864.083069,475.032227 
	C864.440552,463.351471 872.789612,458.015717 882.447937,462.541260 
	C884.947571,463.712463 888.856506,464.015594 891.127563,462.826202 
	C892.802551,461.949005 893.546936,457.981659 893.487854,455.419220 
	C893.402588,451.717743 890.670593,449.544556 887.046387,448.791077 
	C879.188782,447.157532 873.521667,450.761902 868.837402,456.563232 
	C867.346130,458.410278 865.990417,460.366882 863.895020,463.184570 
	C863.601685,457.590088 863.372925,453.227997 863.118042,448.366455 
	C855.783569,450.188202 849.023743,451.792175 842.319397,453.601959 
	C841.118530,453.926147 840.147217,455.100830 839.069885,455.882782 
	C840.178894,456.567627 841.206787,457.595215 842.410461,457.879974 
	C848.765015,459.383423 850.109802,460.872253 850.152893,467.365814 
	C850.224792,478.198639 850.214844,489.031982 850.261719,499.864960 
	C850.296509,507.916443 850.149231,508.063324 842.655090,511.082916 
	C842.071716,511.317993 842.118958,513.118042 842.627930,514.215759 
M743.023499,496.066071 
	C743.023499,482.641663 743.023499,469.217255 743.023499,455.365784 
	C749.075867,455.365784 754.496460,455.365784 760.202026,455.365784 
	C760.308044,453.392120 760.391418,451.840057 760.504456,449.735229 
	C754.441345,449.735229 748.852661,449.735229 742.825928,449.735229 
	C742.825928,442.833862 742.825928,436.459076 742.825928,429.620178 
	C736.351135,432.717041 729.338135,434.057220 730.281677,443.417389 
	C730.715942,447.724457 727.914734,450.479065 723.022766,450.175812 
	C719.413147,449.952026 718.837402,451.984406 719.840881,455.270172 
	C722.866821,455.548737 725.940125,455.831665 729.188965,456.130768 
	C729.188965,458.073486 729.174194,459.713837 729.191223,461.353851 
	C729.333252,475.006073 729.145874,488.672791 729.739624,502.305481 
	C730.169006,512.163574 736.349670,517.061890 746.146790,515.630066 
	C750.832703,514.945251 755.397278,513.063477 759.839111,511.280914 
	C761.309570,510.690826 762.224304,508.715851 763.393127,507.374084 
	C761.661194,507.101807 759.834412,506.330719 758.212891,506.639038 
	C748.458740,508.493744 744.096436,505.807648 743.023499,496.066071 
M949.325317,597.559937 
	C953.059509,599.024841 955.160034,597.603210 956.571655,593.974915 
	C959.527222,586.378174 962.761597,578.890015 965.866394,571.350952 
	C966.675720,569.385620 967.429626,567.397339 968.208923,565.419617 
	C968.601624,565.534302 968.994324,565.649048 969.387024,565.763794 
	C969.387024,576.371460 969.387024,586.979126 969.387024,597.797485 
	C971.560303,597.797485 973.310120,597.797485 975.417358,597.797485 
	C975.417358,582.815796 975.417358,568.096497 975.417358,553.423096 
	C967.238708,552.352905 967.340393,552.393005 964.572754,559.413025 
	C960.696716,569.244324 956.650757,579.008789 952.291748,589.752686 
	C951.013367,587.237183 950.101562,585.716370 949.438965,584.093689 
	C945.979858,575.621765 942.575806,567.127258 939.169006,558.633972 
	C936.553162,552.112610 936.187317,551.925110 929.014526,553.654541 
	C929.014526,568.362671 929.014526,583.049683 929.014526,597.747131 
	C931.130249,597.747131 932.708862,597.747131 935.001709,597.747131 
	C935.001709,586.867554 935.001709,576.290405 935.001709,565.713257 
	C935.263855,565.716248 935.525940,565.719238 935.788086,565.722229 
	C940.139587,576.128418 944.491150,586.534668 949.325317,597.559937 
M1284.023926,486.498230 
	C1284.023926,474.050171 1284.023926,461.602081 1284.023926,448.550598 
	C1276.661865,450.316162 1269.902222,451.853760 1263.201416,453.615814 
	C1261.886230,453.961700 1260.799072,455.175232 1259.606812,455.988617 
	C1260.783691,456.633423 1261.909058,457.696533 1263.146729,457.849304 
	C1268.063354,458.456238 1270.482910,460.719604 1270.399658,465.998779 
	C1270.221313,477.317963 1270.466675,488.643311 1270.483521,499.966187 
	C1270.495239,507.801788 1270.020874,508.358917 1262.613525,510.866943 
	C1261.837524,511.129669 1261.246338,511.937683 1260.569336,512.492676 
	C1261.240967,513.053894 1261.907959,514.097412 1262.585083,514.104065 
	C1273.001831,514.207703 1283.420044,514.176392 1293.837891,514.176392 
	C1293.995361,513.717163 1294.152954,513.257996 1294.310425,512.798767 
	C1293.158203,512.117249 1292.068481,511.008423 1290.842773,510.829254 
	C1285.909058,510.107941 1284.120483,507.033966 1284.074707,502.488220 
	C1284.024292,497.491516 1284.033569,492.494202 1284.023926,486.498230 
M1140.864746,569.995239 
	C1138.430908,558.454407 1129.855713,551.777649 1117.989868,552.184509 
	C1106.413940,552.581421 1097.931763,560.198853 1096.477173,572.338684 
	C1095.218628,582.841309 1100.890991,597.239990 1116.313110,598.785583 
	C1130.813354,600.238831 1140.687134,591.406738 1141.026611,576.864258 
	C1141.072998,574.873840 1140.970459,572.880005 1140.864746,569.995239 
M676.532471,552.927979 
	C673.463196,552.927979 670.393921,552.927979 667.373779,552.927979 
	C667.373779,568.454407 667.373779,583.027039 667.373779,598.009766 
	C673.408447,598.009766 679.046814,598.067383 684.683594,597.998169 
	C697.913086,597.835815 706.854004,588.773254 706.878418,575.574646 
	C706.903931,561.780090 698.333191,553.110901 684.513184,552.960693 
	C682.180481,552.935364 679.847534,552.939880 676.532471,552.927979 
M849.266235,574.329102 
	C851.897827,575.325623 854.499512,576.412537 857.168518,577.296143 
	C860.633301,578.443298 864.332825,579.042664 867.602722,580.577759 
	C872.059998,582.670288 872.326721,588.260864 868.457397,591.246155 
	C863.496033,595.074036 853.300171,593.799438 850.077515,588.440247 
	C847.873291,584.774719 845.645020,584.747925 842.491028,586.404602 
	C845.340454,600.893860 866.966309,601.770630 874.119080,594.170288 
	C880.059204,587.858337 878.647705,578.815247 870.796875,575.100037 
	C867.970825,573.762634 864.836121,573.072449 861.833252,572.115051 
	C859.299866,571.307312 856.449097,571.005859 854.309998,569.606873 
	C852.624329,568.504395 850.830200,566.044800 850.880554,564.238037 
	C850.931274,562.422546 852.832825,560.050476 854.573425,559.007996 
	C859.199585,556.237549 865.425171,557.880066 869.216125,561.555237 
	C870.829163,563.119019 873.529236,563.561523 876.761536,564.956482 
	C873.701172,554.055420 864.350342,549.890930 853.695496,553.101440 
	C843.303406,556.232788 840.855225,566.341614 849.266235,574.329102 
M1151.555786,559.283386 
	C1148.317871,567.912903 1151.159668,573.753113 1160.075806,576.566711 
	C1164.350220,577.915527 1168.836548,578.725098 1172.918457,580.491638 
	C1174.706543,581.265503 1176.774780,583.800049 1176.813354,585.576538 
	C1176.858032,587.627197 1175.298096,590.388611 1173.567749,591.674133 
	C1168.583252,595.377136 1159.059082,593.438599 1155.870605,588.131287 
	C1153.901123,584.852966 1151.859619,584.995605 1148.961914,586.430603 
	C1150.532959,593.571289 1155.176758,597.141602 1161.728760,598.357178 
	C1168.890625,599.685913 1175.795288,599.185608 1180.947144,593.142090 
	C1184.860840,588.550842 1184.606445,580.961426 1180.174561,577.294189 
	C1177.830078,575.354309 1174.735474,574.176025 1171.811768,573.117798 
	C1168.234009,571.822815 1164.258545,571.466187 1160.890503,569.815430 
	C1159.038940,568.908020 1157.009277,566.167297 1157.024536,564.268921 
	C1157.039551,562.391846 1159.145996,559.872620 1161.006592,558.802002 
	C1165.328491,556.315186 1171.800049,558.080017 1175.281250,561.349609 
	C1176.954712,562.921326 1179.552368,563.508972 1181.731567,564.542297 
	C1182.031616,563.984680 1182.331665,563.427063 1182.631714,562.869446 
	C1180.960815,557.532776 1177.496338,553.979736 1171.728149,552.908325 
	C1164.200439,551.510132 1157.102783,551.796631 1151.555786,559.283386 
M618.554077,598.950684 
	C626.348572,598.919861 632.171143,595.585388 634.776489,588.131653 
	C637.876709,579.262024 638.298035,570.236572 634.146362,561.464294 
	C631.115234,555.059631 625.642883,552.368103 618.871765,552.133972 
	C611.895569,551.892578 606.619324,554.982971 603.510437,561.228333 
	C599.548767,569.186646 599.535400,577.568481 601.954346,585.918152 
	C604.206665,593.692749 609.341492,598.350952 618.554077,598.950684 
M801.265991,593.148621 
	C796.629089,593.373108 791.978577,593.031616 789.246826,588.745544 
	C787.151917,585.458618 784.685669,585.533691 781.398499,586.446716 
	C783.115662,593.808594 788.109070,597.447510 794.984924,598.538208 
	C802.331116,599.703674 809.309814,598.851074 814.449585,592.521545 
	C814.861206,592.014587 815.125549,591.376892 815.404541,590.775085 
	C818.784790,583.481323 814.733643,576.013306 805.850769,573.300110 
	C801.574951,571.994080 797.092773,571.213501 793.020996,569.459473 
	C791.265869,568.703369 789.303711,566.094238 789.282349,564.304871 
	C789.261047,562.524231 791.187927,560.152100 792.907166,559.030945 
	C797.206116,556.227539 804.463806,557.933472 808.031372,561.486572 
	C809.537842,562.986938 812.054138,563.473267 814.111450,564.420471 
	C814.407593,563.952820 814.703735,563.485168 814.999878,563.017517 
	C814.695862,561.964478 814.567017,560.817322 814.059753,559.873474 
	C810.428955,553.118530 801.144897,550.320984 792.058289,553.171387 
	C785.952209,555.086853 783.130615,558.492371 782.975037,564.134460 
	C782.808289,570.180481 785.316101,573.805176 791.582031,575.905762 
	C795.504089,577.220703 799.647827,577.884949 803.547485,579.253174 
	C806.796936,580.393188 810.545044,581.670898 809.999207,586.267944 
	C809.467407,590.746826 806.464294,592.798889 801.265991,593.148621 
M589.462097,565.204773 
	C586.521790,556.506165 580.414856,551.847656 572.314514,552.124146 
	C563.957703,552.409363 557.239014,557.180542 555.937256,566.034729 
	C554.904724,573.057922 555.258972,580.667419 556.860229,587.585510 
	C558.393860,594.211609 563.874939,598.405090 571.146912,598.870178 
	C578.565369,599.344543 584.639099,596.749634 587.969666,589.767517 
	C591.612366,582.131104 591.843445,574.100647 589.462097,565.204773 
M894.741760,578.025818 
	C900.389404,577.919922 906.048889,577.984070 911.676575,577.591492 
	C913.130554,577.489990 914.484497,575.954712 915.884399,575.078125 
	C914.498352,574.353638 913.135742,573.062256 911.722168,573.003784 
	C905.959167,572.765503 900.180603,572.904602 894.316345,572.904602 
	C894.316345,567.359070 894.316345,562.821228 894.316345,557.917297 
	C901.397888,557.917297 908.043213,558.038391 914.675171,557.795776 
	C915.754211,557.756287 916.774292,556.107605 917.821594,555.202698 
	C916.895386,554.317627 915.985291,552.683960 915.040588,552.663757 
	C905.976379,552.469421 896.906433,552.547424 887.827942,552.547424 
	C887.827942,568.365601 887.827942,583.054077 887.827942,597.735718 
	C898.219543,597.735718 908.126343,597.735718 917.976013,597.735718 
	C919.084595,594.316162 917.852783,593.137878 914.742737,593.172791 
	C907.972839,593.248779 901.201416,593.196289 894.102478,593.196289 
	C894.102478,587.957886 894.102478,583.353760 894.741760,578.025818 
M1059.359619,590.889587 
	C1060.229614,587.673584 1062.175903,586.350464 1065.613770,586.744385 
	C1068.409546,587.064758 1071.322266,587.148132 1074.093262,586.734741 
	C1079.634033,585.908020 1082.928711,587.858582 1084.214233,593.407288 
	C1085.168335,597.526184 1087.640991,599.250244 1092.474487,597.172424 
	C1086.681885,582.971497 1081.010620,568.785461 1075.063232,554.716309 
	C1073.812256,551.757080 1068.352539,552.132080 1067.098145,555.189636 
	C1061.357178,569.183533 1055.776611,583.243225 1050.101562,597.370850 
	C1056.363647,598.534180 1056.363647,598.534180 1059.359619,590.889587 
M1005.537415,585.805542 
	C1009.662720,595.331421 1018.060913,600.007141 1028.934570,598.831848 
	C1036.947632,597.965759 1043.121826,592.808411 1044.464722,585.800598 
	C1041.518677,584.706970 1039.336914,584.897522 1037.350586,588.015198 
	C1036.134033,589.924622 1033.662964,591.436646 1031.435669,592.232239 
	C1020.514954,596.133545 1011.384705,589.466980 1010.086548,576.893250 
	C1009.316711,569.436829 1013.156860,561.843689 1018.993469,559.281677 
	C1025.721558,556.328308 1032.382690,558.186951 1037.923462,563.902161 
	C1039.307007,565.329224 1042.022583,565.464966 1045.282593,566.595154 
	C1044.485718,564.093811 1044.361816,563.444580 1044.083374,562.870300 
	C1040.255371,554.976318 1032.272949,551.020874 1022.816772,552.307861 
	C1013.142029,553.624695 1005.175110,560.693420 1004.269836,569.860535 
	C1003.776978,574.851807 1004.863892,579.999084 1005.537415,585.805542 
M737.303589,598.003601 
	C738.544006,596.906250 740.627869,595.976440 740.884521,594.683777 
	C742.285828,587.625366 746.640076,585.764465 753.127869,586.788330 
	C754.749878,587.044250 756.490112,587.072571 758.100586,586.784302 
	C763.359192,585.843079 766.113464,588.082275 767.317749,593.134399 
	C768.317322,597.328186 770.881531,599.370667 775.859680,597.339172 
	C770.189148,583.220154 764.591309,569.067688 758.705872,555.035828 
	C758.236267,553.916321 755.749756,553.046204 754.254639,553.122437 
	C752.785156,553.197327 750.788635,554.285217 750.076233,555.530701 
	C748.528015,558.237488 747.664612,561.333618 746.496643,564.260681 
	C742.622803,573.969421 738.693970,583.656616 734.898071,593.395630 
	C734.210144,595.160645 732.385620,597.720276 737.303589,598.003601 
M533.427429,560.936707 
	C533.973450,561.569275 534.966064,562.183716 534.992554,562.837341 
	C535.154053,566.819580 535.105408,570.810730 535.109070,574.798950 
	C535.116089,582.389771 535.111084,589.980591 535.111084,597.656372 
	C537.701843,597.656372 539.575562,597.656372 541.629272,597.656372 
	C541.629272,582.715881 541.629272,568.171387 541.629272,553.483887 
	C534.286194,551.528076 530.124695,557.071350 525.071350,560.025879 
	C524.221924,560.522522 524.572449,563.071594 524.228027,565.775513 
	C527.875549,563.888733 530.340271,562.613708 533.427429,560.936707 
M717.944641,597.593811 
	C719.698669,597.724304 721.452698,597.854858 723.580811,598.013184 
	C723.580811,582.802490 723.580811,568.108276 723.580811,553.307617 
	C721.615845,553.307617 720.038574,553.307617 717.433533,553.307617 
	C717.433533,568.039307 717.433533,582.456665 717.944641,597.593811 
M1283.808716,421.756134 
	C1282.766357,420.953247 1281.812988,419.980927 1280.665405,419.378418 
	C1276.794312,417.346008 1273.235596,418.070129 1270.266113,421.150635 
	C1267.405884,424.117706 1267.009399,427.645203 1268.961548,431.220673 
	C1270.979370,434.916626 1274.509277,435.841522 1278.351440,435.259460 
	C1284.675415,434.301453 1286.922974,429.202423 1283.808716,421.756134 
z"/>
<path fill="#DB897B" opacity="1.000000" stroke="none" 
	d="
M209.814331,403.801392 
	C228.764481,368.551239 274.807434,357.480591 305.445496,381.229614 
	C313.044220,387.119751 318.788971,395.541321 324.871521,403.207458 
	C330.648102,410.488037 335.751221,418.302979 341.579956,426.485809 
	C343.505280,423.677643 345.192688,421.138336 346.958405,418.654694 
	C354.472870,408.085144 361.362152,396.985016 369.697418,387.106079 
	C381.110748,373.579071 396.974884,368.884155 414.111877,369.491302 
	C444.169891,370.556183 468.222778,391.295532 474.335999,420.737427 
	C475.209290,424.943329 475.594299,429.324646 475.599640,433.625549 
	C475.671326,491.104980 475.571655,548.584717 475.733673,606.063782 
	C475.748260,611.236755 474.271271,612.348999 469.195190,612.269409 
	C446.708496,611.916870 424.211365,611.916626 401.722595,612.179810 
	C394.155823,612.268433 386.928650,611.066650 380.552429,607.401367 
	C369.330597,600.950745 358.306488,594.085938 347.681580,586.701050 
	C343.343597,583.685913 340.063873,582.291626 334.700806,584.207764 
	C322.682648,588.501648 310.387634,590.990845 297.735565,585.774719 
	C288.077637,581.793030 280.268188,575.596252 273.268982,566.853394 
	C273.069946,568.800354 272.847992,569.984131 272.843323,571.168823 
	C272.795441,583.330994 272.689484,595.494446 272.821259,607.655029 
	C272.857422,610.994995 271.943298,612.548828 268.372162,612.524963 
	C247.722443,612.386963 227.071289,612.422668 206.423325,612.174622 
	C205.319565,612.161316 204.095932,610.211121 203.215286,608.960388 
	C202.821335,608.400818 203.133255,607.340637 203.133484,606.507629 
	C203.149506,548.195312 203.126770,489.882935 203.222763,431.570740 
	C203.238541,421.986847 205.118103,412.719910 209.814331,403.801392 
M300.427277,493.013123 
	C305.057190,491.120575 306.515381,488.300049 304.231262,483.361847 
	C302.746948,480.152771 304.075409,477.239136 307.652802,475.650269 
	C310.236206,474.502869 314.244110,473.472809 314.777771,471.587036 
	C315.436371,469.259491 313.186249,466.086060 312.127045,463.303284 
	C311.417023,461.437775 310.698425,459.562378 309.800751,457.783691 
	C305.556549,449.374207 305.463898,440.942688 309.121613,432.276031 
	C311.546936,426.529358 312.852966,420.541534 311.259277,414.240326 
	C311.039398,413.371124 311.354797,412.366547 311.424652,411.393463 
	C317.079559,412.450745 320.097565,415.060822 319.905121,420.234741 
	C319.717407,425.282288 318.892609,430.524963 317.155273,435.242950 
	C314.757965,441.753204 314.550171,447.784454 317.384705,454.091187 
	C319.839264,459.552368 322.067444,465.118622 324.277679,470.685272 
	C325.975037,474.960083 324.554565,478.170349 320.509033,480.217621 
	C319.029205,480.966461 317.489288,481.622040 315.924622,482.171539 
	C313.695312,482.954529 312.741241,484.027679 313.614166,486.630737 
	C315.093292,491.041382 314.228241,494.774628 309.738586,497.254669 
	C308.857300,497.741486 307.955414,499.584839 308.199677,500.498688 
	C310.503662,509.118896 307.482605,515.802795 300.664886,521.366699 
	C311.470093,539.618591 324.347748,555.826965 340.353394,569.417419 
	C341.473938,570.368835 344.598236,570.321655 345.925751,569.438477 
	C352.564178,565.022156 358.959412,560.232361 365.338135,555.438171 
	C367.319458,553.949036 369.872894,552.336731 370.582581,550.244324 
	C371.688538,546.983582 371.951416,543.182617 371.405426,539.798828 
	C371.272919,538.977722 366.594055,538.596558 363.996460,538.551758 
	C361.534363,538.509338 359.064667,539.210022 356.590302,539.520020 
	C347.654877,540.639465 340.971893,535.691650 339.194519,526.778259 
	C339.024780,525.927307 338.422760,524.836670 337.709351,524.477844 
	C335.009003,523.119629 335.360046,521.167847 335.569611,518.613037 
	C335.758423,516.311157 335.175476,513.235168 333.697357,511.660034 
	C330.892975,508.671631 330.657562,506.096527 333.455811,503.540863 
	C338.372803,499.050110 339.418884,493.544739 339.027649,487.231323 
	C338.580841,480.020691 341.301636,473.900208 346.604767,468.940826 
	C364.830750,451.896271 397.093323,460.218689 405.922760,484.489502 
	C412.344299,502.141418 407.325073,518.327332 397.974304,533.445068 
	C387.148041,550.948364 371.849854,563.959045 354.629395,574.870178 
	C353.311432,575.705200 352.037994,576.610474 349.822937,578.104065 
	C359.184845,584.318054 367.554504,590.314819 376.357025,595.589233 
	C384.792114,600.643494 393.588409,604.055054 404.091400,603.617920 
	C423.693695,602.801819 443.352692,603.283020 462.987366,603.373779 
	C466.205688,603.388672 466.872375,602.053711 466.853210,599.191895 
	C466.746094,583.209229 466.822632,567.225464 466.750641,551.242432 
	C466.670502,533.446960 466.441895,515.652100 466.380646,497.856628 
	C466.303894,475.553772 466.404846,453.250183 466.284210,430.947662 
	C466.221741,419.393280 462.331818,409.066132 455.250916,399.990143 
	C433.604797,372.245148 391.347931,369.768646 370.885651,399.546906 
	C362.590729,411.618317 354.632477,423.921021 346.516388,436.115387 
	C342.056946,442.815765 340.961945,442.741974 336.534271,436.268829 
	C328.360504,424.318939 320.293182,412.280975 311.684387,400.647614 
	C299.689697,384.438812 283.926910,375.722809 263.140900,377.830444 
	C239.798248,380.197296 212.135529,398.864044 212.189804,432.940277 
	C212.277145,487.765900 212.178894,542.591858 212.159180,597.417664 
	C212.158539,599.202942 212.159103,600.988220 212.159103,603.280823 
	C228.745056,603.280823 244.690033,603.334229 260.632080,603.141113 
	C261.537231,603.130127 263.175873,601.112183 263.194275,600.006897 
	C263.407745,587.194519 263.343536,574.377747 263.418274,561.562561 
	C263.465851,553.406311 263.517731,545.246643 263.838654,537.099182 
	C263.889313,535.813416 265.377869,534.584351 266.201599,533.329041 
	C267.472076,534.198608 269.269043,534.790222 269.905090,535.994812 
	C271.290466,538.618408 272.168854,541.526367 273.105774,544.367126 
	C277.771179,558.512817 285.819885,569.902710 299.280457,577.008850 
	C307.969788,581.596069 324.811462,580.312500 331.806732,574.412842 
	C331.657471,574.121704 331.573303,573.762268 331.349762,573.549072 
	C316.314880,559.213318 303.419861,543.162964 292.580933,525.439453 
	C291.994415,524.480469 290.564117,523.390137 289.568756,523.429443 
	C280.241547,523.797058 270.270111,522.325562 263.663300,531.502563 
	C263.542297,531.670593 263.052734,531.573303 262.743011,531.599121 
	C259.063721,524.758728 261.922089,518.257751 270.361420,516.409302 
	C276.460907,515.073303 282.897247,515.222656 289.191254,514.839539 
	C299.157715,514.232910 301.747314,510.465546 299.260864,500.843475 
	C298.680389,498.597137 299.621002,495.957703 300.427277,493.013123 
M382.899841,538.171326 
	C389.548615,530.009521 395.833160,521.589539 398.519196,511.185638 
	C403.806274,490.707123 395.994171,474.759460 378.087830,469.073486 
	C360.738037,463.564301 346.624481,474.500916 347.363495,492.475800 
	C347.495300,495.682098 345.441956,498.980316 344.386108,502.232361 
	C343.943207,503.596649 342.861176,505.080597 343.117371,506.287750 
	C344.187927,511.332184 345.843414,516.251587 346.937286,521.292114 
	C348.831451,530.020264 350.534180,531.346680 359.430084,530.137024 
	C362.062408,529.779114 364.665253,529.149475 367.305603,528.916077 
	C374.690033,528.263611 377.003021,529.734924 380.156189,536.457703 
	C380.583893,537.369568 381.700134,537.958496 382.899841,538.171326 
z"/>
<path fill="#384A64" opacity="1.000000" stroke="none" 
	d="
M534.674500,460.013153 
	C534.789795,450.350647 534.903687,441.187958 534.947449,432.024933 
	C534.978638,425.496613 533.309570,423.600464 526.972351,422.040527 
	C525.509155,421.680359 524.258972,420.454773 522.910767,419.627441 
	C524.449280,419.117126 525.978516,418.202087 527.527893,418.166565 
	C534.188660,418.013885 540.863159,418.317413 547.516541,418.051361 
	C551.074646,417.909058 552.758362,419.121338 554.077881,422.466827 
	C562.257568,443.206024 570.682373,463.848602 579.035889,484.519196 
	C579.770142,486.336090 580.576233,488.123932 581.702637,490.749756 
	C584.640747,483.419250 587.324158,476.843750 589.916504,470.232513 
	C595.930481,454.895050 602.115112,439.618683 607.762146,424.146545 
	C609.538330,419.280090 611.889832,417.503113 617.072510,417.871033 
	C624.179321,418.375610 631.348816,417.997223 638.491516,417.997223 
	C638.753662,418.467896 639.015869,418.938599 639.278015,419.409271 
	C638.196533,420.193634 637.215881,421.411896 636.016907,421.690613 
	C629.171021,423.281830 627.694031,424.742645 627.807922,431.889069 
	C628.176636,455.033447 628.708984,478.175201 629.185974,501.317810 
	C629.293274,506.523865 631.604004,509.724335 637.057129,510.524811 
	C638.294189,510.706360 639.335144,512.223816 640.466370,513.126343 
	C639.241638,513.643677 638.021179,514.598267 636.791565,514.609985 
	C625.963684,514.713989 615.133728,514.690552 604.305786,514.574158 
	C603.220093,514.562500 602.143677,513.686462 601.062988,513.211609 
	C602.073608,512.462280 602.986023,511.295807 604.110718,511.031250 
	C611.519348,509.288300 613.596863,507.487061 613.525024,500.402771 
	C613.302368,478.414948 612.759094,456.430420 612.320312,434.444977 
	C612.312012,434.030731 612.057373,433.621368 611.562805,432.164154 
	C609.374512,437.710693 607.535095,442.413086 605.665955,447.103607 
	C597.658142,467.198303 589.643738,487.290436 581.622437,507.379761 
	C581.129272,508.614685 580.743164,509.957001 579.969238,510.998108 
	C579.090088,512.180664 577.824585,513.883179 576.737854,513.875244 
	C575.670715,513.867371 574.150391,512.188354 573.627869,510.914886 
	C566.240662,492.910797 559.004211,474.844910 551.698547,456.807190 
	C548.729797,449.477203 545.682373,442.179047 541.796997,434.910309 
	C541.610657,436.064941 541.269653,437.218414 541.261108,438.374390 
	C541.113220,458.365601 540.964172,478.357025 540.910339,498.348663 
	C540.887756,506.751556 542.228271,508.261536 550.274658,510.626648 
	C551.554993,511.002960 552.546631,512.361267 553.671753,513.265564 
	C552.470337,513.808594 551.274597,514.806885 550.066650,514.821777 
	C541.404602,514.928162 532.738770,514.900085 524.077942,514.724976 
	C522.945557,514.702087 521.835083,513.598511 520.714417,512.995483 
	C521.738037,512.201721 522.647644,511.009033 523.803711,510.678650 
	C531.658630,508.433624 532.973816,507.229370 533.372437,498.965393 
	C533.990295,486.157257 534.238342,473.331268 534.674500,460.013153 
z"/>
<path fill="#394B65" opacity="1.000000" stroke="none" 
	d="
M1223.070312,449.058105 
	C1232.860229,449.674622 1242.219971,450.228210 1252.003906,450.806854 
	C1252.003906,451.844055 1252.003906,453.906281 1252.003906,456.463135 
	C1247.303467,456.463135 1242.758057,456.463135 1237.399902,456.463135 
	C1242.312012,463.098267 1243.645874,469.825165 1241.449097,476.839783 
	C1238.208862,487.186768 1230.076050,491.601379 1220.011597,492.872345 
	C1216.091431,493.367401 1211.965698,493.309082 1208.073730,492.660645 
	C1203.873535,491.960846 1201.875610,494.174561 1201.097290,497.312134 
	C1200.170410,501.048218 1203.129761,502.940247 1206.264771,503.209320 
	C1212.886353,503.777710 1219.558716,503.726166 1226.203857,504.057709 
	C1229.517578,504.223022 1232.880127,504.370514 1236.112549,505.044464 
	C1250.969116,508.142059 1255.866577,523.454346 1245.769409,534.964966 
	C1240.227905,541.281982 1232.852051,544.267151 1224.923096,545.924255 
	C1214.771973,548.045654 1204.695923,547.094971 1194.855713,544.005127 
	C1188.895264,542.133545 1184.781250,538.326172 1183.569092,531.889465 
	C1182.493896,526.179993 1184.365845,521.699829 1189.426270,518.768799 
	C1192.390259,517.051941 1195.536011,515.648926 1198.848755,513.979492 
	C1185.465942,506.250702 1186.358154,500.140411 1202.002930,490.489258 
	C1201.296997,489.976959 1200.733643,489.423462 1200.059692,489.100952 
	C1191.401367,484.957672 1188.127075,477.885651 1189.120361,468.655487 
	C1190.138672,459.193024 1195.580200,452.719574 1204.441406,450.296265 
	C1210.195923,448.722565 1216.553223,449.352570 1223.070312,449.058105 
M1200.785034,518.015198 
	C1194.477783,524.909302 1194.712524,532.712036 1201.384155,537.929749 
	C1209.491699,544.270386 1228.277832,543.040466 1235.521484,535.694702 
	C1240.541260,530.604187 1240.682373,521.211426 1234.893188,518.729004 
	C1224.104858,514.102844 1212.659302,514.899841 1200.785034,518.015198 
M1222.398926,454.864197 
	C1215.045532,450.667908 1208.319336,452.675568 1205.425903,460.313232 
	C1202.676270,467.570892 1202.960327,475.012146 1205.870483,482.179077 
	C1207.646606,486.553253 1211.300903,488.776398 1216.024414,488.963928 
	C1220.196167,489.129547 1223.414429,487.359314 1225.470825,483.686951 
	C1229.748779,476.047821 1228.540649,462.485443 1222.398926,454.864197 
z"/>
<path fill="#354761" opacity="1.000000" stroke="none" 
	d="
M912.837280,451.025360 
	C916.435547,450.167633 919.634827,449.388245 923.527283,448.440002 
	C923.909912,452.247070 924.245728,455.588867 924.620483,459.317688 
	C927.446045,457.135956 929.662170,454.712128 932.411865,453.463470 
	C936.880798,451.434113 941.604004,449.266174 946.388184,448.766113 
	C958.790222,447.469849 966.877625,454.907928 967.163757,467.389557 
	C967.408020,478.045197 967.273132,488.713898 967.091248,499.373199 
	C966.991028,505.249725 967.916687,510.069427 974.990601,511.022949 
	C975.708984,511.119751 976.269226,512.389709 977.816528,514.161438 
	C966.181091,514.161438 955.931152,514.184265 945.682068,514.097412 
	C945.139404,514.092773 944.604614,513.159668 944.066162,512.658813 
	C944.698975,512.051270 945.226379,511.163757 945.980957,510.879578 
	C953.529480,508.036957 953.849182,507.611023 953.823730,499.832123 
	C953.793762,490.669556 953.867371,481.506012 953.757141,472.344574 
	C953.659912,464.271484 951.147034,460.172821 945.557861,458.464630 
	C938.554993,456.324402 929.187012,458.997101 925.733704,464.459808 
	C924.748291,466.018738 924.419922,468.213959 924.398071,470.124329 
	C924.278076,480.618164 924.440918,491.115265 924.310120,501.608826 
	C924.247437,506.638367 925.879883,509.951233 931.286499,510.756989 
	C932.366699,510.917969 933.298645,512.073730 934.298950,512.770752 
	C934.145447,513.266296 933.991882,513.761902 933.838318,514.257507 
	C930.430237,514.257507 927.022095,514.255005 923.614014,514.258057 
	C916.950256,514.264038 910.285522,514.328064 903.623840,514.214417 
	C902.744873,514.199463 901.881348,513.284302 901.010681,512.786072 
	C901.627869,512.174133 902.137207,511.266357 902.878967,510.995880 
	C910.314148,508.284668 910.689636,507.781860 910.675720,499.975159 
	C910.656067,488.980438 910.689880,477.985504 910.642578,466.990936 
	C910.613831,460.301270 909.672180,459.271698 903.354431,457.826904 
	C902.283997,457.582092 901.397766,456.532227 900.426453,455.854279 
	C901.384399,455.103699 902.233704,454.032440 903.321167,453.664093 
	C906.306702,452.652863 909.392273,451.936676 912.837280,451.025360 
z"/>
<path fill="#374964" opacity="1.000000" stroke="none" 
	d="
M1139.090576,515.762390 
	C1120.751831,514.872559 1109.501953,504.230164 1107.432739,486.252350 
	C1105.425293,468.812164 1114.361938,454.292786 1129.956543,449.657806 
	C1145.081299,445.162445 1161.884644,450.855469 1169.244751,462.968597 
	C1177.397949,476.387085 1175.591675,495.412689 1165.059937,506.637146 
	C1158.128052,514.025024 1149.153198,515.784363 1139.090576,515.762390 
M1127.077637,460.745575 
	C1125.860962,464.515472 1124.020508,468.208618 1123.545288,472.069794 
	C1122.168823,483.254120 1122.273804,494.432648 1128.827881,504.293213 
	C1135.867188,514.883728 1149.874756,514.052063 1154.757935,502.475861 
	C1160.361206,489.192200 1160.128906,475.360657 1154.338623,462.238586 
	C1149.123535,450.420380 1135.112671,449.621948 1127.077637,460.745575 
z"/>
<path fill="#384A64" opacity="1.000000" stroke="none" 
	d="
M1053.866455,484.768250 
	C1050.013672,511.715515 1025.209106,524.267090 1002.286194,511.319916 
	C988.501343,503.534027 982.888184,485.132843 989.295471,468.733307 
	C995.454041,452.970032 1010.310852,445.622681 1028.942017,449.126221 
	C1043.778564,451.916168 1053.886230,464.726898 1053.935303,480.810577 
	C1053.938843,481.975769 1053.904419,483.141113 1053.866455,484.768250 
M1011.099487,507.501892 
	C1020.565247,514.792358 1030.941895,512.123901 1035.302734,501.071838 
	C1036.507812,498.017914 1037.216431,494.674438 1037.581543,491.400146 
	C1038.701538,481.355347 1038.453491,471.372803 1033.826904,462.090088 
	C1031.156860,456.732880 1026.948364,453.092468 1020.577332,452.914490 
	C1014.339539,452.740173 1009.737244,455.469391 1006.664124,460.920349 
	C999.968689,472.796265 1001.956726,496.504944 1011.099487,507.501892 
z"/>
<path fill="#374964" opacity="1.000000" stroke="none" 
	d="
M686.250549,448.880615 
	C698.298584,450.814758 703.197937,456.225464 703.440857,468.089294 
	C703.652405,478.415955 703.403381,488.751221 703.484863,499.081696 
	C703.543823,506.557037 704.297485,507.230804 711.594482,508.018005 
	C712.535767,508.119537 713.400940,508.925629 714.301392,509.405273 
	C713.643494,510.352203 713.188293,511.750702 712.286987,512.155273 
	C710.183350,513.099548 707.883179,513.635803 705.630920,514.214294 
	C695.842712,516.728271 692.972961,515.202454 690.200012,506.027283 
	C687.211548,508.086670 684.499390,510.899384 681.212952,512.004272 
	C675.979675,513.763733 670.352234,515.325256 664.912842,515.257446 
	C657.626465,515.166626 652.674927,510.288666 651.332703,504.056641 
	C649.745789,496.688293 652.060303,489.912262 658.434937,486.349976 
	C663.318237,483.621094 668.733643,481.742615 674.069519,479.954987 
	C679.107666,478.267181 684.350952,477.191528 690.580322,475.565613 
	C689.894043,470.288910 689.724670,464.799683 688.355103,459.628296 
	C686.974548,454.415924 682.772766,452.508636 676.927612,452.991089 
	C671.945251,453.402283 669.971863,456.425232 668.708496,460.947540 
	C667.892456,463.868744 666.193176,467.407288 663.809509,468.746490 
	C661.981201,469.773651 657.581238,468.665558 655.900330,466.957153 
	C653.187073,464.199493 654.318054,460.298370 656.725647,457.399261 
	C661.010498,452.239563 667.036438,450.117126 673.370178,449.181458 
	C677.449829,448.578796 681.669250,448.922424 686.250549,448.880615 
M683.351379,481.791138 
	C678.985840,483.739563 674.290771,485.184326 670.341431,487.768738 
	C665.793274,490.744934 664.392883,498.073212 666.593018,502.597534 
	C668.477722,506.473267 672.602905,508.015320 678.719360,507.130554 
	C684.603027,506.279449 689.789856,502.165924 690.030640,497.539307 
	C690.331238,491.763672 690.102905,485.960510 690.102905,479.582520 
	C687.805847,480.315521 685.954895,480.906189 683.351379,481.791138 
z"/>
<path fill="#384A64" opacity="1.000000" stroke="none" 
	d="
M1353.782471,458.381042 
	C1354.443359,462.160583 1355.314697,465.589569 1355.373657,469.032440 
	C1355.547607,479.188721 1355.439697,489.350830 1355.363525,499.510040 
	C1355.316895,505.740845 1357.719116,508.962433 1364.067627,507.544220 
	C1364.898682,507.358582 1366.027710,508.507721 1367.018799,509.038635 
	C1366.376587,510.011688 1365.948975,511.461426 1365.050781,511.865753 
	C1362.640747,512.950623 1360.061157,513.709961 1357.492188,514.381348 
	C1348.405151,516.756104 1345.431519,515.193481 1342.335205,506.252502 
	C1340.843140,507.417694 1339.444458,508.487579 1338.069702,509.587494 
	C1332.181396,514.299011 1325.427734,516.144104 1317.990356,515.492798 
	C1310.809937,514.863953 1305.565308,510.887482 1304.107056,505.167877 
	C1302.133057,497.425049 1304.302368,490.871826 1310.629639,486.697723 
	C1313.379395,484.883698 1316.431885,483.383026 1319.540527,482.291840 
	C1324.397461,480.586945 1329.394897,479.260132 1334.376343,477.937012 
	C1343.181885,475.598206 1343.723877,474.639282 1341.964233,463.398193 
	C1340.853271,456.302307 1336.467407,452.559967 1329.715210,452.946686 
	C1324.351562,453.253906 1322.044312,455.618988 1320.763794,462.419128 
	C1320.159302,465.629639 1319.731445,469.117706 1315.452148,468.867340 
	C1312.985962,468.723083 1309.463013,468.194672 1308.443604,466.568268 
	C1307.248047,464.660553 1307.650513,461.161621 1308.494751,458.750153 
	C1309.180176,456.791992 1311.308960,455.054993 1313.199585,453.851257 
	C1322.298340,448.058441 1332.318970,447.568848 1342.571167,449.503601 
	C1347.581909,450.449188 1351.349121,453.364807 1353.782471,458.381042 
M1342.624146,494.154724 
	C1342.624146,489.455902 1342.624146,484.757080 1342.624146,479.535309 
	C1337.410645,481.340973 1333.027222,482.447266 1329.037964,484.371063 
	C1325.845825,485.910522 1322.544678,487.958527 1320.332764,490.639557 
	C1316.079346,495.795074 1317.499756,503.543640 1322.551880,506.306519 
	C1330.796387,510.815216 1342.243042,504.398529 1342.624146,494.154724 
z"/>
<path fill="#354762" opacity="1.000000" stroke="none" 
	d="
M783.811157,453.778442 
	C792.565002,447.737640 801.984985,447.341827 811.460205,449.583344 
	C824.022827,452.555115 830.613342,463.641876 828.709839,478.449615 
	C814.432007,478.449615 800.025757,478.449615 784.648254,478.449615 
	C785.728943,484.147552 786.046692,489.034790 787.613831,493.481659 
	C792.255005,506.650940 809.372070,510.563782 822.151306,501.804108 
	C823.897644,500.607117 825.567505,496.884491 828.108887,499.980194 
	C828.756042,500.768524 826.995911,504.297577 825.580261,505.890503 
	C816.613098,515.980225 800.203003,518.998291 787.397095,513.168579 
	C775.564453,507.781921 768.721436,494.117828 770.315613,479.319305 
	C771.414124,469.122528 775.009033,460.289398 783.811157,453.778442 
M809.808655,455.555786 
	C804.707458,451.856537 799.507568,452.120178 794.527771,455.588440 
	C788.547668,459.753387 786.273438,465.850342 785.673767,473.328949 
	C794.396667,473.328949 802.513306,473.336456 810.629944,473.325287 
	C813.895020,473.320770 815.407776,471.259369 814.706116,468.470490 
	C813.641663,464.239258 811.855835,460.189514 809.808655,455.555786 
z"/>
<path fill="#374964" opacity="1.000000" stroke="none" 
	d="
M1073.920532,483.999542 
	C1073.907104,466.176208 1073.898682,448.852692 1073.876343,431.529205 
	C1073.865967,423.467468 1073.614502,423.222504 1065.526733,421.414795 
	C1064.571655,421.201263 1063.755981,420.363922 1062.875610,419.815735 
	C1063.472412,418.969391 1063.929443,417.550903 1064.687744,417.365692 
	C1071.915405,415.599823 1079.194092,414.042877 1087.210815,412.258331 
	C1087.210815,414.230743 1087.209106,415.806671 1087.211060,417.382629 
	C1087.243164,443.367584 1087.266968,469.352539 1087.322632,495.337433 
	C1087.328003,497.831543 1087.602173,500.324402 1087.630371,502.819214 
	C1087.678711,507.107849 1089.575806,509.613800 1093.966553,510.392456 
	C1095.257812,510.621429 1096.339966,512.029480 1097.517944,512.897095 
	C1096.113892,513.382385 1094.714844,514.270325 1093.304932,514.288086 
	C1083.519531,514.410950 1073.731689,514.352905 1063.944702,514.352905 
	C1063.719482,513.819031 1063.494141,513.285156 1063.268921,512.751282 
	C1064.452881,512.078735 1065.564453,511.060638 1066.833618,510.794250 
	C1071.969849,509.716309 1074.001099,506.529694 1073.915039,501.489441 
	C1073.818481,495.827789 1073.910034,490.162872 1073.920532,483.999542 
z"/>
<path fill="#384A64" opacity="1.000000" stroke="none" 
	d="
M842.250488,514.203247 
	C842.118958,513.118042 842.071716,511.317993 842.655090,511.082916 
	C850.149231,508.063324 850.296509,507.916443 850.261719,499.864960 
	C850.214844,489.031982 850.224792,478.198639 850.152893,467.365814 
	C850.109802,460.872253 848.765015,459.383423 842.410461,457.879974 
	C841.206787,457.595215 840.178894,456.567627 839.069885,455.882812 
	C840.147217,455.100830 841.118530,453.926147 842.319397,453.601959 
	C849.023743,451.792175 855.783569,450.188202 863.118042,448.366455 
	C863.372925,453.227997 863.601685,457.590088 863.895020,463.184570 
	C865.990417,460.366882 867.346130,458.410278 868.837402,456.563232 
	C873.521667,450.761902 879.188782,447.157532 887.046387,448.791077 
	C890.670593,449.544556 893.402588,451.717743 893.487854,455.419220 
	C893.546936,457.981659 892.802551,461.949005 891.127563,462.826202 
	C888.856506,464.015594 884.947571,463.712463 882.447937,462.541260 
	C872.789612,458.015717 864.440552,463.351471 864.083069,475.032227 
	C863.807800,484.023041 864.115295,493.030273 864.032654,502.028992 
	C863.988403,506.843628 866.153748,509.539673 870.935791,510.142090 
	C871.760986,510.246033 872.669067,510.263672 873.371094,510.636841 
	C874.379456,511.172699 875.233704,511.998352 876.153748,512.700317 
	C875.144653,513.220520 874.139832,514.182800 873.125854,514.192444 
	C862.960754,514.289917 852.794128,514.230835 842.250488,514.203247 
z"/>
<path fill="#364862" opacity="1.000000" stroke="none" 
	d="
M743.028320,496.516052 
	C744.096436,505.807648 748.458740,508.493744 758.212891,506.639038 
	C759.834412,506.330719 761.661194,507.101807 763.393127,507.374084 
	C762.224304,508.715851 761.309570,510.690826 759.839111,511.280914 
	C755.397278,513.063477 750.832703,514.945251 746.146790,515.630066 
	C736.349670,517.061890 730.169006,512.163574 729.739624,502.305481 
	C729.145874,488.672791 729.333252,475.006073 729.191223,461.353851 
	C729.174194,459.713837 729.188965,458.073486 729.188965,456.130768 
	C725.940125,455.831665 722.866821,455.548737 719.840881,455.270172 
	C718.837402,451.984406 719.413147,449.952026 723.022766,450.175812 
	C727.914734,450.479065 730.715942,447.724457 730.281677,443.417389 
	C729.338135,434.057220 736.351135,432.717041 742.825928,429.620178 
	C742.825928,436.459076 742.825928,442.833862 742.825928,449.735229 
	C748.852661,449.735229 754.441345,449.735229 760.504456,449.735229 
	C760.391418,451.840057 760.308044,453.392120 760.202026,455.365784 
	C754.496460,455.365784 749.075867,455.365784 743.023499,455.365784 
	C743.023499,469.217255 743.023499,482.641663 743.028320,496.516052 
z"/>
<path fill="#DD8C7E" opacity="1.000000" stroke="none" 
	d="
M949.083984,597.250427 
	C944.491150,586.534668 940.139587,576.128418 935.788086,565.722229 
	C935.525940,565.719238 935.263855,565.716248 935.001709,565.713257 
	C935.001709,576.290405 935.001709,586.867554 935.001709,597.747131 
	C932.708862,597.747131 931.130249,597.747131 929.014526,597.747131 
	C929.014526,583.049683 929.014526,568.362671 929.014526,553.654541 
	C936.187317,551.925110 936.553162,552.112610 939.169006,558.633972 
	C942.575806,567.127258 945.979858,575.621765 949.438965,584.093689 
	C950.101562,585.716370 951.013367,587.237183 952.291748,589.752686 
	C956.650757,579.008789 960.696716,569.244324 964.572754,559.413025 
	C967.340393,552.393005 967.238708,552.352905 975.417358,553.423096 
	C975.417358,568.096497 975.417358,582.815796 975.417358,597.797485 
	C973.310120,597.797485 971.560303,597.797485 969.387024,597.797485 
	C969.387024,586.979126 969.387024,576.371460 969.387024,565.763794 
	C968.994324,565.649048 968.601624,565.534302 968.208923,565.419617 
	C967.429626,567.397339 966.675720,569.385620 965.866394,571.350952 
	C962.761597,578.890015 959.527222,586.378174 956.571655,593.974915 
	C955.160034,597.603210 953.059509,599.024841 949.083984,597.250427 
z"/>
<path fill="#364864" opacity="1.000000" stroke="none" 
	d="
M1284.020508,486.997681 
	C1284.033569,492.494202 1284.024292,497.491516 1284.074707,502.488220 
	C1284.120483,507.033966 1285.909058,510.107941 1290.842773,510.829254 
	C1292.068481,511.008423 1293.158203,512.117249 1294.310425,512.798767 
	C1294.152954,513.257996 1293.995361,513.717163 1293.837891,514.176392 
	C1283.420044,514.176392 1273.001831,514.207703 1262.585083,514.104065 
	C1261.907959,514.097412 1261.240967,513.053894 1260.569336,512.492676 
	C1261.246338,511.937683 1261.837524,511.129669 1262.613525,510.866943 
	C1270.020874,508.358917 1270.495239,507.801788 1270.483521,499.966187 
	C1270.466675,488.643311 1270.221313,477.317963 1270.399658,465.998779 
	C1270.482910,460.719604 1268.063354,458.456238 1263.146729,457.849304 
	C1261.909058,457.696533 1260.783691,456.633423 1259.606812,455.988586 
	C1260.799072,455.175232 1261.886230,453.961700 1263.201416,453.615814 
	C1269.902222,451.853760 1276.661865,450.316162 1284.023926,448.550598 
	C1284.023926,461.602081 1284.023926,474.050171 1284.020508,486.997681 
z"/>
<path fill="#DF8C7E" opacity="1.000000" stroke="none" 
	d="
M1140.900879,570.441528 
	C1140.970459,572.880005 1141.072998,574.873840 1141.026611,576.864258 
	C1140.687134,591.406738 1130.813354,600.238831 1116.313110,598.785583 
	C1100.890991,597.239990 1095.218628,582.841309 1096.477173,572.338684 
	C1097.931763,560.198853 1106.413940,552.581421 1117.989868,552.184509 
	C1129.855713,551.777649 1138.430908,558.454407 1140.900879,570.441528 
M1107.623657,562.126099 
	C1102.158325,569.398621 1101.442383,578.478394 1105.751587,585.869141 
	C1110.338989,593.736877 1122.196289,595.900818 1129.161987,590.141541 
	C1136.222168,584.304138 1137.324707,570.968384 1131.378052,563.336670 
	C1126.168701,556.651123 1116.258911,555.908936 1107.623657,562.126099 
z"/>
<path fill="#A9CAB6" opacity="1.000000" stroke="none" 
	d="
M677.023560,552.929321 
	C679.847534,552.939880 682.180481,552.935364 684.513184,552.960693 
	C698.333191,553.110901 706.903931,561.780090 706.878418,575.574646 
	C706.854004,588.773254 697.913086,597.835815 684.683594,597.998169 
	C679.046814,598.067383 673.408447,598.009766 667.373779,598.009766 
	C667.373779,583.027039 667.373779,568.454407 667.373779,552.927979 
	C670.393921,552.927979 673.463196,552.927979 677.023560,552.929321 
M672.935303,577.497009 
	C672.935303,582.585266 672.935303,587.673523 672.935303,592.941895 
	C682.376099,592.941284 691.557861,594.911316 697.406677,586.157410 
	C701.712280,579.713135 701.454956,569.502441 696.991333,563.994812 
	C690.672424,556.197876 681.890991,558.115479 672.937012,558.193237 
	C672.937012,564.594604 672.937012,570.546692 672.935303,577.497009 
z"/>
<path fill="#E19183" opacity="1.000000" stroke="none" 
	d="
M848.962280,574.114746 
	C840.855225,566.341614 843.303406,556.232788 853.695496,553.101440 
	C864.350342,549.890930 873.701172,554.055420 876.761536,564.956482 
	C873.529236,563.561523 870.829163,563.119019 869.216125,561.555237 
	C865.425171,557.880066 859.199585,556.237549 854.573425,559.007996 
	C852.832825,560.050476 850.931274,562.422546 850.880554,564.238037 
	C850.830200,566.044800 852.624329,568.504395 854.309998,569.606873 
	C856.449097,571.005859 859.299866,571.307312 861.833252,572.115051 
	C864.836121,573.072449 867.970825,573.762634 870.796875,575.100037 
	C878.647705,578.815247 880.059204,587.858337 874.119080,594.170288 
	C866.966309,601.770630 845.340454,600.893860 842.491028,586.404602 
	C845.645020,584.747925 847.873291,584.774719 850.077515,588.440247 
	C853.300171,593.799438 863.496033,595.074036 868.457397,591.246155 
	C872.326721,588.260864 872.059998,582.670288 867.602722,580.577759 
	C864.332825,579.042664 860.633301,578.443298 857.168518,577.296143 
	C854.499512,576.412537 851.897827,575.325623 848.962280,574.114746 
z"/>
<path fill="#DF8C7E" opacity="1.000000" stroke="none" 
	d="
M1151.734619,558.947510 
	C1157.102783,551.796631 1164.200439,551.510132 1171.728149,552.908325 
	C1177.496338,553.979736 1180.960815,557.532776 1182.631714,562.869446 
	C1182.331665,563.427063 1182.031616,563.984680 1181.731567,564.542297 
	C1179.552368,563.508972 1176.954712,562.921326 1175.281250,561.349609 
	C1171.800049,558.080017 1165.328491,556.315186 1161.006592,558.802002 
	C1159.145996,559.872620 1157.039551,562.391846 1157.024536,564.268921 
	C1157.009277,566.167297 1159.038940,568.908020 1160.890503,569.815430 
	C1164.258545,571.466187 1168.234009,571.822815 1171.811768,573.117798 
	C1174.735474,574.176025 1177.830078,575.354309 1180.174561,577.294189 
	C1184.606445,580.961426 1184.860840,588.550842 1180.947144,593.142090 
	C1175.795288,599.185608 1168.890625,599.685913 1161.728760,598.357178 
	C1155.176758,597.141602 1150.532959,593.571289 1148.961914,586.430603 
	C1151.859619,584.995605 1153.901123,584.852966 1155.870605,588.131287 
	C1159.059082,593.438599 1168.583252,595.377136 1173.567749,591.674133 
	C1175.298096,590.388611 1176.858032,587.627197 1176.813354,585.576538 
	C1176.774780,583.800049 1174.706543,581.265503 1172.918457,580.491638 
	C1168.836548,578.725098 1164.350220,577.915527 1160.075806,576.566711 
	C1151.159668,573.753113 1148.317871,567.912903 1151.734619,558.947510 
z"/>
<path fill="#ACCEB9" opacity="1.000000" stroke="none" 
	d="
M618.124146,598.940674 
	C609.341492,598.350952 604.206665,593.692749 601.954346,585.918152 
	C599.535400,577.568481 599.548767,569.186646 603.510437,561.228333 
	C606.619324,554.982971 611.895569,551.892578 618.871765,552.133972 
	C625.642883,552.368103 631.115234,555.059631 634.146362,561.464294 
	C638.298035,570.236572 637.876709,579.262024 634.776489,588.131653 
	C632.171143,595.585388 626.348572,598.919861 618.124146,598.940674 
M624.972961,591.636658 
	C630.775818,585.517639 632.582947,568.797302 627.322083,562.339111 
	C625.215942,559.753662 621.018799,557.753540 617.667908,557.584961 
	C613.538330,557.377258 609.273254,559.866638 608.687439,564.682251 
	C607.940369,570.824158 607.128235,577.217468 608.046936,583.242798 
	C609.483459,592.664307 615.401306,595.406067 624.972961,591.636658 
z"/>
<path fill="#A8C9B4" opacity="1.000000" stroke="none" 
	d="
M801.696167,593.130493 
	C806.464294,592.798889 809.467407,590.746826 809.999207,586.267944 
	C810.545044,581.670898 806.796936,580.393188 803.547485,579.253174 
	C799.647827,577.884949 795.504089,577.220703 791.582031,575.905762 
	C785.316101,573.805176 782.808289,570.180481 782.975037,564.134460 
	C783.130615,558.492371 785.952209,555.086853 792.058289,553.171387 
	C801.144897,550.320984 810.428955,553.118530 814.059753,559.873474 
	C814.567017,560.817322 814.695862,561.964478 814.999878,563.017517 
	C814.703735,563.485168 814.407593,563.952820 814.111450,564.420471 
	C812.054138,563.473267 809.537842,562.986938 808.031372,561.486572 
	C804.463806,557.933472 797.206116,556.227539 792.907166,559.030945 
	C791.187927,560.152100 789.261047,562.524231 789.282349,564.304871 
	C789.303711,566.094238 791.265869,568.703369 793.020996,569.459473 
	C797.092773,571.213501 801.574951,571.994080 805.850769,573.300110 
	C814.733643,576.013306 818.784790,583.481323 815.404541,590.775085 
	C815.125549,591.376892 814.861206,592.014587 814.449585,592.521545 
	C809.309814,598.851074 802.331116,599.703674 794.984924,598.538208 
	C788.109070,597.447510 783.115662,593.808594 781.398499,586.446716 
	C784.685669,585.533691 787.151917,585.458618 789.246826,588.745544 
	C791.978577,593.031616 796.629089,593.373108 801.696167,593.130493 
z"/>
<path fill="#AACCB7" opacity="1.000000" stroke="none" 
	d="
M589.604126,565.584839 
	C591.843445,574.100647 591.612366,582.131104 587.969666,589.767517 
	C584.639099,596.749634 578.565369,599.344543 571.146912,598.870178 
	C563.874939,598.405090 558.393860,594.211609 556.860229,587.585510 
	C555.258972,580.667419 554.904724,573.057922 555.937256,566.034729 
	C557.239014,557.180542 563.957703,552.409363 572.314514,552.124146 
	C580.414856,551.847656 586.521790,556.506165 589.604126,565.584839 
M579.525330,591.119141 
	C585.903259,583.247864 584.955383,574.318481 582.655090,565.523438 
	C581.070068,559.463440 577.521179,557.526733 571.433350,557.848938 
	C566.469543,558.111633 563.036438,560.757629 562.185120,566.655334 
	C561.415833,571.984131 561.640015,577.521301 561.984741,582.931030 
	C562.536865,591.596985 571.221497,596.755005 579.525330,591.119141 
z"/>
<path fill="#DF8C7E" opacity="1.000000" stroke="none" 
	d="
M894.422119,578.387695 
	C894.102478,583.353760 894.102478,587.957886 894.102478,593.196289 
	C901.201416,593.196289 907.972839,593.248779 914.742737,593.172791 
	C917.852783,593.137878 919.084595,594.316162 917.976013,597.735718 
	C908.126343,597.735718 898.219543,597.735718 887.827942,597.735718 
	C887.827942,583.054077 887.827942,568.365601 887.827942,552.547424 
	C896.906433,552.547424 905.976379,552.469421 915.040588,552.663757 
	C915.985291,552.683960 916.895386,554.317627 917.821594,555.202698 
	C916.774292,556.107605 915.754211,557.756287 914.675171,557.795776 
	C908.043213,558.038391 901.397888,557.917297 894.316345,557.917297 
	C894.316345,562.821228 894.316345,567.359070 894.316345,572.904602 
	C900.180603,572.904602 905.959167,572.765503 911.722168,573.003784 
	C913.135742,573.062256 914.498352,574.353638 915.884399,575.078125 
	C914.484497,575.954712 913.130554,577.489990 911.676575,577.591492 
	C906.048889,577.984070 900.389404,577.919922 894.422119,578.387695 
z"/>
<path fill="#DF9081" opacity="1.000000" stroke="none" 
	d="
M1059.205933,591.257080 
	C1056.363647,598.534180 1056.363647,598.534180 1050.101562,597.370850 
	C1055.776611,583.243225 1061.357178,569.183533 1067.098145,555.189636 
	C1068.352539,552.132080 1073.812256,551.757080 1075.063232,554.716309 
	C1081.010620,568.785461 1086.681885,582.971497 1092.474487,597.172424 
	C1087.640991,599.250244 1085.168335,597.526184 1084.214233,593.407288 
	C1082.928711,587.858582 1079.634033,585.908020 1074.093262,586.734741 
	C1071.322266,587.148132 1068.409546,587.064758 1065.613770,586.744385 
	C1062.175903,586.350464 1060.229614,587.673584 1059.205933,591.257080 
M1069.732788,563.439880 
	C1067.670898,569.098083 1065.608887,574.756226 1063.344482,580.969788 
	C1069.247681,581.241028 1074.062378,581.462219 1079.850342,581.728210 
	C1076.771362,573.976135 1074.125854,567.315430 1071.187744,559.917969 
	C1070.560913,561.339661 1070.249634,562.045410 1069.732788,563.439880 
z"/>
<path fill="#DF9081" opacity="1.000000" stroke="none" 
	d="
M1005.387817,585.440796 
	C1004.863892,579.999084 1003.776978,574.851807 1004.269836,569.860535 
	C1005.175110,560.693420 1013.142029,553.624695 1022.816772,552.307861 
	C1032.272949,551.020874 1040.255371,554.976318 1044.083374,562.870300 
	C1044.361816,563.444580 1044.485718,564.093811 1045.282593,566.595154 
	C1042.022583,565.464966 1039.307007,565.329224 1037.923462,563.902161 
	C1032.382690,558.186951 1025.721558,556.328308 1018.993469,559.281677 
	C1013.156860,561.843689 1009.316711,569.436829 1010.086548,576.893250 
	C1011.384705,589.466980 1020.514954,596.133545 1031.435669,592.232239 
	C1033.662964,591.436646 1036.134033,589.924622 1037.350586,588.015198 
	C1039.336914,584.897522 1041.518677,584.706970 1044.464722,585.800598 
	C1043.121826,592.808411 1036.947632,597.965759 1028.934570,598.831848 
	C1018.060913,600.007141 1009.662720,595.331421 1005.387817,585.440796 
z"/>
<path fill="#AACCB7" opacity="1.000000" stroke="none" 
	d="
M736.897827,598.002197 
	C732.385620,597.720276 734.210144,595.160645 734.898071,593.395630 
	C738.693970,583.656616 742.622803,573.969421 746.496643,564.260681 
	C747.664612,561.333618 748.528015,558.237488 750.076233,555.530701 
	C750.788635,554.285217 752.785156,553.197327 754.254639,553.122437 
	C755.749756,553.046204 758.236267,553.916321 758.705872,555.035828 
	C764.591309,569.067688 770.189148,583.220154 775.859680,597.339172 
	C770.881531,599.370667 768.317322,597.328186 767.317749,593.134399 
	C766.113464,588.082275 763.359192,585.843079 758.100586,586.784302 
	C756.490112,587.072571 754.749878,587.044250 753.127869,586.788330 
	C746.640076,585.764465 742.285828,587.625366 740.884521,594.683777 
	C740.627869,595.976440 738.544006,596.906250 736.897827,598.002197 
M749.861206,570.383301 
	C748.647827,573.905273 747.434387,577.427246 746.095825,581.312500 
	C752.067505,581.312500 757.213013,581.312500 763.218079,581.312500 
	C760.163635,574.040405 757.432495,567.538086 754.170288,559.771362 
	C752.388977,564.162720 751.272095,566.916199 749.861206,570.383301 
z"/>
<path fill="#ACCEB9" opacity="1.000000" stroke="none" 
	d="
M533.116211,561.137695 
	C530.340271,562.613708 527.875549,563.888733 524.228027,565.775513 
	C524.572449,563.071594 524.221924,560.522522 525.071350,560.025879 
	C530.124695,557.071350 534.286194,551.528076 541.629272,553.483887 
	C541.629272,568.171387 541.629272,582.715881 541.629272,597.656372 
	C539.575562,597.656372 537.701843,597.656372 535.111084,597.656372 
	C535.111084,589.980591 535.116089,582.389771 535.109070,574.798950 
	C535.105408,570.810730 535.154053,566.819580 534.992554,562.837341 
	C534.966064,562.183716 533.973450,561.569275 533.116211,561.137695 
z"/>
<path fill="#ACCEB9" opacity="1.000000" stroke="none" 
	d="
M717.689087,597.233887 
	C717.433533,582.456665 717.433533,568.039307 717.433533,553.307617 
	C720.038574,553.307617 721.615845,553.307617 723.580811,553.307617 
	C723.580811,568.108276 723.580811,582.802490 723.580811,598.013184 
	C721.452698,597.854858 719.698669,597.724304 717.689087,597.233887 
z"/>
<path fill="#354761" opacity="1.000000" stroke="none" 
	d="
M1284.020752,422.066223 
	C1286.922974,429.202423 1284.675415,434.301453 1278.351440,435.259460 
	C1274.509277,435.841522 1270.979370,434.916626 1268.961548,431.220673 
	C1267.009399,427.645203 1267.405884,424.117706 1270.266113,421.150635 
	C1273.235596,418.070129 1276.794312,417.346008 1280.665405,419.378418 
	C1281.812988,419.980927 1282.766357,420.953247 1284.020752,422.066223 
z"/>
<path fill="#FEFDFD" opacity="1.000000" stroke="none" 
	d="
M300.144531,493.256134 
	C299.621002,495.957703 298.680389,498.597137 299.260864,500.843475 
	C301.747314,510.465546 299.157715,514.232910 289.191254,514.839539 
	C282.897247,515.222656 276.460907,515.073303 270.361420,516.409302 
	C261.922089,518.257751 259.063721,524.758728 262.743011,531.599121 
	C263.052734,531.573303 263.542297,531.670593 263.663300,531.502563 
	C270.270111,522.325562 280.241547,523.797058 289.568756,523.429443 
	C290.564117,523.390137 291.994415,524.480469 292.580933,525.439453 
	C303.419861,543.162964 316.314880,559.213318 331.349762,573.549072 
	C331.573303,573.762268 331.657471,574.121704 331.801575,574.415527 
	C324.811462,580.312500 307.969788,581.596069 299.280457,577.008850 
	C285.819885,569.902710 277.771179,558.512817 273.105774,544.367126 
	C272.168854,541.526367 271.290466,538.618408 269.905090,535.994812 
	C269.269043,534.790222 267.472076,534.198608 266.201599,533.329041 
	C265.377869,534.584351 263.889313,535.813416 263.838654,537.099182 
	C263.517731,545.246643 263.465851,553.406311 263.418274,561.562561 
	C263.343536,574.377747 263.407745,587.194519 263.194275,600.006897 
	C263.175873,601.112183 261.537231,603.130127 260.632080,603.141113 
	C244.690033,603.334229 228.745056,603.280823 212.159103,603.280823 
	C212.159103,600.988220 212.158539,599.202942 212.159180,597.417664 
	C212.178894,542.591858 212.277145,487.765900 212.189804,432.940277 
	C212.135529,398.864044 239.798248,380.197296 263.140900,377.830444 
	C283.926910,375.722809 299.689697,384.438812 311.684387,400.647614 
	C320.293182,412.280975 328.360504,424.318939 336.534271,436.268829 
	C340.961945,442.741974 342.056946,442.815765 346.516388,436.115387 
	C354.632477,423.921021 362.590729,411.618317 370.885651,399.546906 
	C391.347931,369.768646 433.604797,372.245148 455.250916,399.990143 
	C462.331818,409.066132 466.221741,419.393280 466.284210,430.947662 
	C466.404846,453.250183 466.303894,475.553772 466.380646,497.856628 
	C466.441895,515.652100 466.670502,533.446960 466.750641,551.242432 
	C466.822632,567.225464 466.746094,583.209229 466.853210,599.191895 
	C466.872375,602.053711 466.205688,603.388672 462.987366,603.373779 
	C443.352692,603.283020 423.693695,602.801819 404.091400,603.617920 
	C393.588409,604.055054 384.792114,600.643494 376.357025,595.589233 
	C367.554504,590.314819 359.184845,584.318054 349.822937,578.104065 
	C352.037994,576.610474 353.311432,575.705200 354.629395,574.870178 
	C371.849854,563.959045 387.148041,550.948364 397.974304,533.445068 
	C407.325073,518.327332 412.344299,502.141418 405.922760,484.489502 
	C397.093323,460.218689 364.830750,451.896271 346.604767,468.940826 
	C341.301636,473.900208 338.580841,480.020691 339.027649,487.231323 
	C339.418884,493.544739 338.372803,499.050110 333.455811,503.540863 
	C330.657562,506.096527 330.892975,508.671631 333.697357,511.660034 
	C335.175476,513.235168 335.758423,516.311157 335.569611,518.613037 
	C335.360046,521.167847 335.009003,523.119629 337.709351,524.477844 
	C338.422760,524.836670 339.024780,525.927307 339.194519,526.778259 
	C340.971893,535.691650 347.654877,540.639465 356.590302,539.520020 
	C359.064667,539.210022 361.534363,538.509338 363.996460,538.551758 
	C366.594055,538.596558 371.272919,538.977722 371.405426,539.798828 
	C371.951416,543.182617 371.688538,546.983582 370.582581,550.244324 
	C369.872894,552.336731 367.319458,553.949036 365.338135,555.438171 
	C358.959412,560.232361 352.564178,565.022156 345.925751,569.438477 
	C344.598236,570.321655 341.473938,570.368835 340.353394,569.417419 
	C324.347748,555.826965 311.470093,539.618591 300.664886,521.366699 
	C307.482605,515.802795 310.503662,509.118896 308.199677,500.498688 
	C307.955414,499.584839 308.857300,497.741486 309.738586,497.254669 
	C314.228241,494.774628 315.093292,491.041382 313.614166,486.630737 
	C312.741241,484.027679 313.695312,482.954529 315.924622,482.171539 
	C317.489288,481.622040 319.029205,480.966461 320.509033,480.217621 
	C324.554565,478.170349 325.975037,474.960083 324.277679,470.685272 
	C322.067444,465.118622 319.839264,459.552368 317.384705,454.091187 
	C314.550171,447.784454 314.757965,441.753204 317.155273,435.242950 
	C318.892609,430.524963 319.717407,425.282288 319.905121,420.234741 
	C320.097565,415.060822 317.079559,412.450745 311.424652,411.393463 
	C311.354797,412.366547 311.039398,413.371124 311.259277,414.240326 
	C312.852966,420.541534 311.546936,426.529358 309.121613,432.276031 
	C305.463898,440.942688 305.556549,449.374207 309.800751,457.783691 
	C310.698425,459.562378 311.417023,461.437775 312.127045,463.303284 
	C313.186249,466.086060 315.436371,469.259491 314.777771,471.587036 
	C314.244110,473.472809 310.236206,474.502869 307.652802,475.650269 
	C304.075409,477.239136 302.746948,480.152771 304.231262,483.361847 
	C306.515381,488.300049 305.057190,491.120575 300.144531,493.256134 
z"/>
<path fill="#FEFDFC" opacity="1.000000" stroke="none" 
	d="
M382.698700,538.434143 
	C381.700134,537.958496 380.583893,537.369568 380.156189,536.457703 
	C377.003021,529.734924 374.690033,528.263611 367.305603,528.916077 
	C364.665253,529.149475 362.062408,529.779114 359.430084,530.137024 
	C350.534180,531.346680 348.831451,530.020264 346.937286,521.292114 
	C345.843414,516.251587 344.187927,511.332184 343.117371,506.287750 
	C342.861176,505.080597 343.943207,503.596649 344.386108,502.232361 
	C345.441956,498.980316 347.495300,495.682098 347.363495,492.475800 
	C346.624481,474.500916 360.738037,463.564301 378.087830,469.073486 
	C395.994171,474.759460 403.806274,490.707123 398.519196,511.185638 
	C395.833160,521.589539 389.548615,530.009521 382.698700,538.434143 
z"/>
<path fill="#FBFBFB" opacity="1.000000" stroke="none" 
	d="
M1201.072754,517.739502 
	C1212.659302,514.899841 1224.104858,514.102844 1234.893188,518.729004 
	C1240.682373,521.211426 1240.541260,530.604187 1235.521484,535.694702 
	C1228.277832,543.040466 1209.491699,544.270386 1201.384155,537.929749 
	C1194.712524,532.712036 1194.477783,524.909302 1201.072754,517.739502 
z"/>
<path fill="#FBFBFB" opacity="1.000000" stroke="none" 
	d="
M1222.692383,455.119171 
	C1228.540649,462.485443 1229.748779,476.047821 1225.470825,483.686951 
	C1223.414429,487.359314 1220.196167,489.129547 1216.024414,488.963928 
	C1211.300903,488.776398 1207.646606,486.553253 1205.870483,482.179077 
	C1202.960327,475.012146 1202.676270,467.570892 1205.425903,460.313232 
	C1208.319336,452.675568 1215.045532,450.667908 1222.692383,455.119171 
z"/>
<path fill="#FBFCFC" opacity="1.000000" stroke="none" 
	d="
M1127.260620,460.418457 
	C1135.112671,449.621948 1149.123535,450.420380 1154.338623,462.238586 
	C1160.128906,475.360657 1160.361206,489.192200 1154.757935,502.475861 
	C1149.874756,514.052063 1135.867188,514.883728 1128.827881,504.293213 
	C1122.273804,494.432648 1122.168823,483.254120 1123.545288,472.069794 
	C1124.020508,468.208618 1125.860962,464.515472 1127.260620,460.418457 
z"/>
<path fill="#FBFCFC" opacity="1.000000" stroke="none" 
	d="
M1010.838989,507.237793 
	C1001.956726,496.504944 999.968689,472.796265 1006.664124,460.920349 
	C1009.737244,455.469391 1014.339539,452.740173 1020.577332,452.914490 
	C1026.948364,453.092468 1031.156860,456.732880 1033.826904,462.090088 
	C1038.453491,471.372803 1038.701538,481.355347 1037.581543,491.400146 
	C1037.216431,494.674438 1036.507812,498.017914 1035.302734,501.071838 
	C1030.941895,512.123901 1020.565247,514.792358 1010.838989,507.237793 
z"/>
<path fill="#FBFBFB" opacity="1.000000" stroke="none" 
	d="
M683.727661,481.643982 
	C685.954895,480.906189 687.805847,480.315521 690.102905,479.582520 
	C690.102905,485.960510 690.331238,491.763672 690.030640,497.539307 
	C689.789856,502.165924 684.603027,506.279449 678.719360,507.130554 
	C672.602905,508.015320 668.477722,506.473267 666.593018,502.597534 
	C664.392883,498.073212 665.793274,490.744934 670.341431,487.768738 
	C674.290771,485.184326 678.985840,483.739563 683.727661,481.643982 
z"/>
<path fill="#F7F7F8" opacity="1.000000" stroke="none" 
	d="
M1342.624023,494.604706 
	C1342.243042,504.398529 1330.796387,510.815216 1322.551880,506.306519 
	C1317.499756,503.543640 1316.079346,495.795074 1320.332764,490.639557 
	C1322.544678,487.958527 1325.845825,485.910522 1329.037964,484.371063 
	C1333.027222,482.447266 1337.410645,481.340973 1342.624146,479.535309 
	C1342.624146,484.757080 1342.624146,489.455902 1342.624023,494.604706 
z"/>
<path fill="#FBFBFB" opacity="1.000000" stroke="none" 
	d="
M810.092529,455.809235 
	C811.855835,460.189514 813.641663,464.239258 814.706116,468.470490 
	C815.407776,471.259369 813.895020,473.320770 810.629944,473.325287 
	C802.513306,473.336456 794.396667,473.328949 785.673767,473.328949 
	C786.273438,465.850342 788.547668,459.753387 794.527771,455.588440 
	C799.507568,452.120178 804.707458,451.856537 810.092529,455.809235 
z"/>
<path fill="#FEFDFC" opacity="1.000000" stroke="none" 
	d="
M1107.889893,561.861816 
	C1116.258911,555.908936 1126.168701,556.651123 1131.378052,563.336670 
	C1137.324707,570.968384 1136.222168,584.304138 1129.161987,590.141541 
	C1122.196289,595.900818 1110.338989,593.736877 1105.751587,585.869141 
	C1101.442383,578.478394 1102.158325,569.398621 1107.889893,561.861816 
z"/>
<path fill="#FCFDFD" opacity="1.000000" stroke="none" 
	d="
M672.936157,576.997925 
	C672.937012,570.546692 672.937012,564.594604 672.937012,558.193237 
	C681.890991,558.115479 690.672424,556.197876 696.991333,563.994812 
	C701.454956,569.502441 701.712280,579.713135 697.406677,586.157410 
	C691.557861,594.911316 682.376099,592.941284 672.935303,592.941895 
	C672.935303,587.673523 672.935303,582.585266 672.936157,576.997925 
z"/>
<path fill="#FCFDFD" opacity="1.000000" stroke="none" 
	d="
M624.675049,591.870300 
	C615.401306,595.406067 609.483459,592.664307 608.046936,583.242798 
	C607.128235,577.217468 607.940369,570.824158 608.687439,564.682251 
	C609.273254,559.866638 613.538330,557.377258 617.667908,557.584961 
	C621.018799,557.753540 625.215942,559.753662 627.322083,562.339111 
	C632.582947,568.797302 630.775818,585.517639 624.675049,591.870300 
z"/>
<path fill="#FCFDFD" opacity="1.000000" stroke="none" 
	d="
M579.240845,591.375793 
	C571.221497,596.755005 562.536865,591.596985 561.984741,582.931030 
	C561.640015,577.521301 561.415833,571.984131 562.185120,566.655334 
	C563.036438,560.757629 566.469543,558.111633 571.433350,557.848938 
	C577.521179,557.526733 581.070068,559.463440 582.655090,565.523438 
	C584.955383,574.318481 585.903259,583.247864 579.240845,591.375793 
z"/>
<path fill="#FBFBFB" opacity="1.000000" stroke="none" 
	d="
M1069.835693,563.095581 
	C1070.249634,562.045410 1070.560913,561.339661 1071.187744,559.917969 
	C1074.125854,567.315430 1076.771362,573.976135 1079.850342,581.728210 
	C1074.062378,581.462219 1069.247681,581.241028 1063.344482,580.969788 
	C1065.608887,574.756226 1067.670898,569.098083 1069.835693,563.095581 
z"/>
<path fill="#FBFBFB" opacity="1.000000" stroke="none" 
	d="
M750.008179,570.026489 
	C751.272095,566.916199 752.388977,564.162720 754.170288,559.771362 
	C757.432495,567.538086 760.163635,574.040405 763.218079,581.312500 
	C757.213013,581.312500 752.067505,581.312500 746.095825,581.312500 
	C747.434387,577.427246 748.647827,573.905273 750.008179,570.026489 
z"/>
</svg>
